<?xml version="1.0" encoding="UTF-8" standalone="no"?>
<!-- Created with Inkscape (http://www.inkscape.org/) -->

<svg
   width="2560.0px"
   height="1600.0px"
   viewBox="0 0 2560.0 1600.0"
   version="1.1"
   id="SVGRoot"
   sodipodi:docname="auth_login.svg"
   inkscape:version="1.1.1 (3bf5ae0d25, 2021-09-20)"
   xmlns:inkscape="http://www.inkscape.org/namespaces/inkscape"
   xmlns:sodipodi="http://sodipodi.sourceforge.net/DTD/sodipodi-0.dtd"
   xmlns:xlink="http://www.w3.org/1999/xlink"
   xmlns="http://www.w3.org/2000/svg"
   xmlns:svg="http://www.w3.org/2000/svg">
  <sodipodi:namedview
     id="namedview829"
     pagecolor="#ffffff"
     bordercolor="#666666"
     borderopacity="1.0"
     inkscape:pageshadow="2"
     inkscape:pageopacity="0.0"
     inkscape:pagecheckerboard="0"
     inkscape:document-units="px"
     showgrid="false"
     inkscape:zoom="0.11581089"
     inkscape:cx="591.48153"
     inkscape:cy="824.62023"
     inkscape:window-width="1280"
     inkscape:window-height="657"
     inkscape:window-x="1358"
     inkscape:window-y="-8"
     inkscape:window-maximized="1"
     inkscape:current-layer="layer4" />
  <defs
     id="defs824">
    <linearGradient
       inkscape:collect="always"
       id="linearGradient4377">
      <stop
         style="stop-color:#aacbe8;stop-opacity:0.99215686"
         offset="0"
         id="stop4373" />
      <stop
         style="stop-color:#0000ff;stop-opacity:0.99215686"
         offset="1"
         id="stop4375" />
    </linearGradient>
    <inkscape:path-effect
       effect="bspline"
       id="path-effect2872"
       is_visible="true"
       lpeversion="1"
       weight="33.333333"
       steps="2"
       helper_size="0"
       apply_no_weight="true"
       apply_with_weight="true"
       only_selected="false" />
    <linearGradient
       inkscape:collect="always"
       id="linearGradient2641">
      <stop
         style="stop-color:#aacbe8;stop-opacity:0.99215686"
         offset="0"
         id="stop2637" />
      <stop
         style="stop-color:#0000ff;stop-opacity:0.99215686"
         offset="1"
         id="stop2639" />
    </linearGradient>
    <linearGradient
       inkscape:collect="always"
       id="linearGradient2469">
      <stop
         style="stop-color:#aacbe8;stop-opacity:0.99215686"
         offset="0"
         id="stop2465" />
      <stop
         style="stop-color:#0000ff;stop-opacity:0.99215686"
         offset="1"
         id="stop2467" />
    </linearGradient>
    <inkscape:path-effect
       effect="bspline"
       id="path-effect2164"
       is_visible="true"
       lpeversion="1"
       weight="33.333333"
       steps="2"
       helper_size="0"
       apply_no_weight="true"
       apply_with_weight="true"
       only_selected="false" />
    <inkscape:path-effect
       effect="bspline"
       id="path-effect2085"
       is_visible="true"
       lpeversion="1"
       weight="33.333333"
       steps="2"
       helper_size="0"
       apply_no_weight="true"
       apply_with_weight="true"
       only_selected="false" />
    <inkscape:path-effect
       effect="bspline"
       id="path-effect1766"
       is_visible="true"
       lpeversion="1"
       weight="33.333333"
       steps="2"
       helper_size="0"
       apply_no_weight="true"
       apply_with_weight="true"
       only_selected="false" />
    <linearGradient
       inkscape:collect="always"
       id="linearGradient1007">
      <stop
         style="stop-color:#aacbe8;stop-opacity:0.99215686"
         offset="0"
         id="stop1003" />
      <stop
         style="stop-color:#0000ff;stop-opacity:0.99215686"
         offset="1"
         id="stop1005" />
    </linearGradient>
    <inkscape:path-effect
       effect="bspline"
       id="path-effect968"
       is_visible="true"
       lpeversion="1"
       weight="33.333333"
       steps="2"
       helper_size="0"
       apply_no_weight="true"
       apply_with_weight="true"
       only_selected="false" />
    <linearGradient
       inkscape:collect="always"
       xlink:href="#linearGradient4377"
       id="linearGradient1425"
       gradientUnits="userSpaceOnUse"
       x1="-417.82056"
       y1="-338.29309"
       x2="1224.7504"
       y2="1017.3653"
       gradientTransform="translate(725.32041,215.86917)" />
    <linearGradient
       inkscape:collect="always"
       xlink:href="#linearGradient1007"
       id="linearGradient1774"
       x1="1785.7229"
       y1="-594.66748"
       x2="-1626.9877"
       y2="1918.0497"
       gradientUnits="userSpaceOnUse"
       gradientTransform="translate(500.81647,379.92974)" />
    <linearGradient
       inkscape:collect="always"
       xlink:href="#linearGradient2469"
       id="linearGradient2205"
       x1="-920.87103"
       y1="420.84869"
       x2="2295.5649"
       y2="420.84869"
       gradientUnits="userSpaceOnUse"
       gradientTransform="translate(500.81647,379.92974)" />
    <linearGradient
       inkscape:collect="always"
       xlink:href="#linearGradient2641"
       id="linearGradient2995"
       x1="2570.6829"
       y1="-787.69733"
       x2="-1169.7417"
       y2="1733.6545"
       gradientUnits="userSpaceOnUse"
       gradientTransform="translate(500.81647,379.92974)" />
  </defs>
  <g
     inkscape:groupmode="layer"
     id="layer4"
     inkscape:label="Capa 4">
    <path
       style="fill:url(#linearGradient2995);fill-opacity:1;stroke:none;stroke-width:1px;stroke-linecap:butt;stroke-linejoin:miter;stroke-opacity:1"
       d="m -375.61161,1619.0194 c 148.23041,306.5336 171.25646,306.5336 319.489448,358.3435 148.232988,51.8098 421.661832,155.425 728.199162,155.4236 306.53734,-0 646.1647,-103.6165 915.2838,-153.9858 269.1191,-50.3694 467.7147,-47.4912 637.5328,-94.9835 169.8181,-47.4922 310.8498,-145.351 391.441,-224.5032 80.5911,-79.1523 100.7385,-139.5945 162.6226,-175.5732 61.8841,-35.9786 165.4992,-47.4914 225.9422,-141.036 60.4431,-93.5445 77.7123,-269.1146 56.1252,-398.63681 -21.5871,-129.5222 -82.0292,-212.98992 -129.5211,-349.70897 -47.4919,-136.71904 -82.0302,-326.6801 -92.1041,-508.012052 -10.0739,-181.331952 4.3171,-354.023838 -236.0217,-443.250258 -240.3387,-89.22643 -735.3888,-94.98283 -1390.2002,-7.19431 -654.81146,87.78852 -1469.34151,269.114998 -1739.89491,666.32109 -270.5534,397.20609 2.8754,1010.26221 151.1058,1316.79591 z"
       id="path2870"
       inkscape:path-effect="#path-effect2872"
       inkscape:original-d="m -250.40824,1925.553 c 23.02704,10e-4 46.05309,10e-4 69.07813,0 273.440754,103.6202 546.86957,207.2354 820.30285,310.8516 339.64195,-103.6183 679.26936,-207.2334 1018.90256,-310.8516 198.6046,2.8793 397.2002,5.7575 595.7989,8.6347 141.0383,-97.8616 282.07,-195.7204 423.1035,-293.582 20.1492,-60.4436 40.2966,-120.8858 60.4434,-181.3302 103.6203,-11.5122 207.2354,-23.025 310.8516,-34.539 17.2709,-175.5761 34.5401,-351.1462 51.8086,-526.72075 -60.4436,-83.47008 -120.8857,-166.93783 -181.3301,-250.40824 -34.5388,-189.96767 -69.0771,-379.92874 -103.6172,-569.894611 14.3926,-172.69779 28.7836,-345.389669 43.1738,-518.086009 -495.0688,-5.75562 -990.1189,-11.51202 -1485.1799,-17.26953 C 558.3663,-276.30791 -256.16375,-94.981431 -1070.7111,86.347669 -797.27033,699.42937 -523.84153,1312.4855 -250.40824,1925.553 Z" />
  </g>
  <g
     inkscape:groupmode="layer"
     id="layer3"
     inkscape:label="Capa 3">
    <path
       style="fill:url(#linearGradient2205);fill-opacity:1;stroke:none;stroke-width:1px;stroke-linecap:butt;stroke-linejoin:miter;stroke-opacity:1"
       d="m 141.03529,1572.9672 c 109.3738,79.1514 221.62577,64.7601 326.68322,90.6655 105.05745,25.9054 202.91619,92.104 302.21704,143.9128 99.30084,51.8088 200.03779,89.2253 335.31735,100.738 135.2796,11.5126 305.0932,-2.8784 447.5676,-74.836 142.4743,-71.9577 257.6022,-201.4766 466.2793,-270.5548 208.6771,-69.0783 510.8879,-77.7129 656.2392,-182.7707 145.3513,-105.0577 133.8386,-306.5316 97.86,-472.03255 C 2737.2205,742.58855 2676.7783,613.06962 2630.7257,440.37209 2584.6731,267.67457 2553.0129,51.809717 2452.2728,-86.34749 2351.5327,-224.5047 2181.719,-284.94686 1852.1537,-303.65554 1522.5885,-322.36421 1033.2948,-299.33863 654.80135,-260.48169 276.30794,-221.62475 8.6355268,-166.93898 -168.37854,-2.8752916 -345.39261,161.1884 -431.73855,434.61722 -418.78476,644.73159 c 12.9538,210.11438 125.2035,356.90241 234.57823,516.64741 109.374737,159.745 215.868029,332.4368 325.24182,411.5882 z"
       id="path2162"
       inkscape:path-effect="#path-effect2164"
       inkscape:original-d="m 138.15626,1666.51 c 112.25297,-14.3903 224.50494,-28.7816 336.75591,-43.1739 97.86365,66.2022 195.72238,132.4008 293.58207,198.5997 100.74196,37.419 201.47889,74.8356 302.21686,112.2519 169.8215,-14.3905 339.6351,-28.7815 509.4512,-43.1738 115.1336,-129.5231 230.2615,-259.042 345.3907,-388.5645 302.2239,-8.634 604.4347,-17.2685 906.6505,-25.9043 -11.5122,-201.4809 -23.025,-402.9548 -34.539,-604.43365 -60.4436,-129.52309 -120.8858,-259.04201 -181.3301,-388.56451 -31.6605,-215.87249 -63.3207,-431.737341 -94.9825,-647.60751 -169.8194,-60.44357 -339.6331,-120.88573 -509.4512,-181.3301 -489.3122,23.0275 -978.6059,46.05309 -1467.91039,69.07813 -267.68213,54.68895 -535.3545457,109.37472 -803.03332,164.06057 -86.34839,273.44075 -172.69433,546.86957 -259.04302,820.30285 112.25523,146.79497 224.50495,293.58302 336.75592,440.37312 106.498594,172.6998 212.991924,345.3916 319.48637,518.086 z" />
  </g>
  <g
     inkscape:groupmode="layer"
     id="layer2"
     inkscape:label="Capa 2">
    <path
       style="fill:url(#linearGradient1774);fill-opacity:1;stroke:none;stroke-width:1px;stroke-linecap:butt;stroke-linejoin:miter;stroke-opacity:1"
       d="m 251.84749,1149.8635 c 47.49132,260.4815 122.32594,211.5512 223.06662,231.7004 100.74067,20.1491 227.38141,109.3733 329.56026,178.4519 102.17885,69.0785 179.89022,118.0079 295.02183,141.0336 115.1317,23.0256 267.6762,20.1474 392.8809,-20.149 125.2047,-40.2963 223.0634,-118.0077 299.3376,-221.6259 76.2741,-103.6182 130.9599,-233.1371 223.0655,-343.9512 92.1057,-110.8141 221.6246,-202.9164 257.6025,-296.46 35.9779,-93.54359 -21.5861,-188.52415 -33.0992,-309.41258 C 2227.7704,388.56229 2262.3088,241.7742 2207.6211,109.37333 2152.9334,-23.027536 2009.0235,-141.03366 1653.5532,-198.59918 1298.0829,-256.16469 731.07791,-253.2865 457.64335,33.106153 184.20879,319.4988 204.35618,889.38201 251.84749,1149.8635 Z"
       id="path1764"
       inkscape:path-effect="#path-effect1766"
       inkscape:original-d="m 224.50393,1459.2755 c 74.83565,-48.9293 149.67029,-97.8596 224.50394,-146.791 126.64678,89.2287 253.28749,178.4529 379.92974,267.6778 77.71545,48.9323 155.4268,97.8617 233.13869,146.791 152.5516,-2.8773 305.0961,-5.7555 457.6427,-8.6347 97.8636,-77.7135 195.7224,-155.4248 293.5821,-233.1387 54.6889,-129.5231 109.3747,-259.042 164.0605,-388.5645 129.5251,-92.105 259.044,-184.20737 388.5645,-276.31255 C 2308.3609,725.31951 2250.7969,630.33898 2193.2308,535.35554 2227.7716,388.56257 2262.3099,241.77447 2296.848,94.982439 2152.9333,-23.027401 2009.0234,-141.03352 1865.1097,-259.043 c -567.0268,2.87931 -1134.03178,5.75751 -1701.04914,8.63476 20.1492,569.90701 40.29658,1139.79022 60.44337,1709.68374 z" />
    <path
       style="fill:none;stroke:none;stroke-width:1px;stroke-linecap:butt;stroke-linejoin:miter;stroke-opacity:1"
       d="m 333.87836,1747.1016 c 132.39973,118.0078 227.38216,92.1035 336.75735,94.9823 109.3752,2.8788 233.13772,34.539 341.07319,56.126 107.9355,21.5869 200.0378,33.0997 325.2434,27.3428 125.2055,-5.7568 283.5064,-28.7824 404.3935,-138.1578 120.8871,-109.3753 204.3548,-305.0928 385.6882,-423.102 181.3334,-118.0092 460.5186,-158.304 627.4575,-269.1182 166.9389,-110.81428 221.6246,-292.14074 247.529,-456.20259 25.9044,-164.06185 23.0262,-310.84995 -103.619,-474.91242 C 2771.7563,-0.00278932 2521.353,-181.3293 2089.6086,-300.77783 1657.8641,-420.22636 1044.8079,-477.79032 621.70148,-408.71033 c -423.10641,69.08 -656.240455,264.79747 -751.22244,538.23586 -94.98198,273.43839 -51.80901,624.57855 54.688455,931.11537 106.497461,306.5369 276.311135,568.4529 408.710865,686.4607 z"
       id="path2083"
       inkscape:path-effect="#path-effect2085"
       inkscape:original-d="m 371.29497,1891.0139 c 94.98344,-25.9033 189.96587,-51.8076 284.9473,-77.7129 123.76847,31.6624 247.53098,63.3226 371.29493,94.9824 92.1071,11.5143 184.2094,23.0271 276.3126,34.5391 158.3082,-23.0255 316.6091,-46.0511 474.9122,-69.0781 83.4721,-195.7243 166.9398,-391.4418 250.4082,-587.1642 279.1974,-40.2953 558.3826,-80.5901 837.5724,-120.8867 54.689,-181.33271 109.3747,-362.65919 164.0606,-543.99029 -2.8773,-146.79297 -5.7555,-293.58107 -8.6348,-440.37311 C 2771.7562,-0.00263085 2521.3529,-181.3291 2270.9437,-362.6602 1657.864,-420.22547 1044.8078,-477.78943 431.73834,-535.35554 198.59597,-339.62925 -34.538066,-143.91178 -267.67778,51.808599 c 43.1757,351.155211 86.34867,702.295371 129.52151,1053.441501 169.821474,261.9275 339.63516,523.8435 509.45124,785.7638 z" />
  </g>
  <g
     inkscape:label="Capa 1"
     inkscape:groupmode="layer"
     id="layer1">
    <path
       style="fill:url(#linearGradient1425);fill-opacity:1;stroke:none;stroke-width:1px;stroke-linecap:butt;stroke-linejoin:miter;stroke-opacity:1"
       d="m 546.86959,774.25155 c 143.91296,94.98212 351.14737,178.45152 460.52071,251.84805 109.3733,73.3964 120.8861,136.7168 214.4316,178.4512 93.5455,41.7344 269.1156,61.8818 418.7856,1.437 149.6699,-60.4448 273.4324,-201.4765 302.2148,-315.16796 C 1971.6046,777.12841 1905.406,690.78246 1800.3484,650.48636 1695.2907,610.19026 1551.3808,615.94666 1462.1541,542.55021 1372.9275,469.15377 1338.3891,316.60929 1334.0718,189.9648 1329.7544,63.32031 1355.6582,-37.416624 1194.473,-89.2256 1033.2878,-141.03458 685.02584,-143.91278 495.06008,-43.171376 305.09433,57.570024 273.43415,261.92209 297.90062,417.3491 322.36708,572.77611 402.95663,679.26944 546.86959,774.25155 Z"
       id="path966"
       inkscape:path-effect="#path-effect968"
       inkscape:original-d="m 483.54694,785.76378 c 207.2354,83.47041 414.46981,166.93982 621.70326,250.40822 11.5142,63.3239 23.027,126.6443 34.539,189.9649 175.5781,20.1492 351.1482,40.2966 526.7208,60.4434 123.7684,-141.0364 247.531,-282.0681 371.295,-423.10362 -66.2002,-86.3484 -132.3988,-172.69434 -198.5997,-259.043 -143.9146,5.75762 -287.8245,11.51402 -431.7383,17.26953 -34.5388,-152.5496 -69.0771,-305.09409 -103.6172,-457.64264 25.9058,-100.739961 51.8096,-201.476891 77.7129,-302.21684 -348.2749,-2.87731 -696.53687,-5.75551 -1044.8068,-8.63477 -31.66044,204.361239 -63.32062,408.7133 -94.98243,613.06845 80.59377,106.49858 161.18331,212.99191 241.77347,319.48637 z" />
  </g>
</svg>
