<?xml version="1.0" encoding="UTF-8" standalone="no"?>
<!-- Created with Inkscape (http://www.inkscape.org/) -->

<svg
   width="1920.0px"
   height="1080.0px"
   viewBox="0 0 1920.0 1080.0"
   version="1.1"
   id="SVGRoot"
   sodipodi:docname="imageLogo.svg"
   inkscape:version="1.1.1 (3bf5ae0d25, 2021-09-20)"
   xmlns:inkscape="http://www.inkscape.org/namespaces/inkscape"
   xmlns:sodipodi="http://sodipodi.sourceforge.net/DTD/sodipodi-0.dtd"
   xmlns="http://www.w3.org/2000/svg"
   xmlns:svg="http://www.w3.org/2000/svg">
  <sodipodi:namedview
     id="namedview8599"
     pagecolor="#ffffff"
     bordercolor="#666666"
     borderopacity="1.0"
     inkscape:pageshadow="2"
     inkscape:pageopacity="0.0"
     inkscape:pagecheckerboard="0"
     inkscape:document-units="px"
     showgrid="false"
     inkscape:zoom="0.23162177"
     inkscape:cx="654.08359"
     inkscape:cy="515.92732"
     inkscape:window-width="1280"
     inkscape:window-height="657"
     inkscape:window-x="1358"
     inkscape:window-y="-8"
     inkscape:window-maximized="1"
     inkscape:current-layer="layer5" />
  <defs
     id="defs8594" />
  <g
     inkscape:groupmode="layer"
     id="layer5"
     inkscape:label="Capa4" />
  <g
     inkscape:groupmode="layer"
     id="layer3"
     inkscape:label="Capa3">
    <ellipse
       style="fill:#aacbe8;stroke:#aacbe8;stroke-width:25.3882"
       id="path8792"
       cx="655.92944"
       cy="-99.893471"
       rx="46.762226"
       ry="51.01334" />
    <rect
       style="fill:#aacbe8;stroke:none;stroke-width:25.3882;fill-opacity:1"
       id="rect8896"
       width="127.53335"
       height="136.03557"
       x="1739.963"
       y="-184.91568"
       ry="6.3766675" />
    <rect
       style="fill:#aacbe8;stroke:#aacbe8;stroke-width:25.3882"
       id="rect8898"
       width="59.51556"
       height="68.017784"
       x="235.06943"
       y="911.87103"
       ry="6.3766718" />
    <ellipse
       style="fill:#aacbe8;stroke:#aacbe8;stroke-width:25.7713"
       id="path8922"
       cx="1723.5765"
       cy="1108.0398"
       rx="42.937"
       ry="42.936954" />
  </g>
  <g
     inkscape:label="Capa 1"
     inkscape:groupmode="layer"
     id="layer1">
    <g
       id="g8711"
       transform="matrix(1.2079533,0,0,1.2079533,-117.75984,-55.273215)">
      <g
         id="layer2"
         inkscape:label="Capa 2">
        <path
           style="fill:none;fill-opacity:1;stroke:#aacbe8;stroke-width:12.892;stroke-miterlimit:4;stroke-dasharray:none;stroke-opacity:1"
           id="path6597"
           sodipodi:type="arc"
           sodipodi:cx="998.96997"
           sodipodi:cy="540.71588"
           sodipodi:rx="524.80273"
           sodipodi:ry="524.79761"
           sodipodi:start="0"
           sodipodi:end="5.6713909"
           sodipodi:arc-type="slice"
           d="M 1523.7727,540.71588 A 524.80273,524.79761 0 0 1 1078.9252,1059.3871 524.80273,524.79761 0 0 1 498.53008,698.75808 524.80273,524.79761 0 0 1 766.52771,70.20108 524.80273,524.79761 0 0 1 1428.5833,239.30503 L 998.96997,540.71588 Z" />
      </g>
      <g
         inkscape:label="Capa 1"
         id="layer1-9">
        <g
           id="g6493"
           transform="matrix(1.2040763,0,0,1.2040763,547.692,84.108761)">
          <path
             fill="#0000ff"
             id="circle6463"
             sodipodi:type="arc"
             sodipodi:cx="376"
             sodipodi:cy="376"
             sodipodi:rx="376"
             sodipodi:ry="376"
             sodipodi:start="0"
             sodipodi:end="6.2750123"
             sodipodi:open="true"
             sodipodi:arc-type="arc"
             d="M 752,376 A 376,376 0 0 1 376.76826,751.99922 376,376 0 0 1 0.0031395,377.53652 376,376 0 0 1 373.69523,0.00706387 376,376 0 0 1 751.98744,372.92698"
             style="fill:#aacbe8;fill-opacity:1" />
          <path
             d="m 640.39953,861.5 40.0859,-145.729 c 0,0 108.194,-102.54486 101.885,-184.56218 -0.20878,-2.71415 0,-2.92293 0,-2.92293 l -1.38789,-20.58707 a 6.728,6.728 0 0 0 -11.84886,-3.89336 L 747.71283,529.12101 740,539.5 c 0,0 -19.01111,23.026 -54.08627,12.58693 l -11.27416,-1.67024 c 0,0 -28.1854,13.57075 -66.1835,-8.14245 0,0 13.362,15.86734 -19.20783,-16.70246 -32.56983,-32.5698 -76.41375,-83.5123 -76.41375,-83.5123 v 0 c -6.80867,-7.2837 -2.0385,-27.61137 7.91357,-28.21693 22.58729,-1.37439 48.33551,-7.4197 55.57633,-15.50765 a 29.85489,29.85489 0 0 0 6.11637,-10.70064 v 0 a 30.25475,30.25475 0 0 0 -25.572,-39.45265 c -26.25361,-2.75788 -68.95626,-4.88781 -81.16794,-0.19713 a 36.88165,36.88165 0 0 0 -3.39545,1.52283 48.96465,48.96465 0 0 0 -26.39727,39.82426 c -3.43281,41.96674 -7.9438,133.97789 12.772,183.00519 l 25.76026,60.966 -79.7543,226.31824 z"
             transform="translate(-224,-38.5)"
             fill="#2f2e41"
             id="path6465" />
          <path
             d="m 755,518.5 c 0,0 -33.401,9.19 -34.4028,-23.38386 0,0 -2.34248,-152.885 -116.64948,-97.90215 -114.307,54.98285 -57.82221,133.268 -57.82221,133.268 0,0 15.69835,0.35395 12.61889,12.19352 -3.07946,11.83957 -7.924,26.41811 -7.924,26.41811 0,0 -0.35039,13.489 15.63584,8.68885 0,0 4.71955,2.09124 -1.82761,11.07386 0,0 2.89194,13.1651 11.14167,9.77841 0,0 -5.746,1.85528 -2.79158,6.6855 2.95442,4.83022 3.91842,9.21858 8.92583,6.15575 5.00741,-3.06283 9.21372,1.00168 9.21372,1.00168 0,0 0.77644,29.39305 29.5691,11.78177 28.79266,-17.61128 26.1261,-27.59556 40.05935,-24.50264 a 38.55715,38.55715 0 0 0 4.11113,0.66563 49.1391,49.1391 0 0 0 44.79312,-20.08118 z"
             transform="translate(-224,-38.5)"
             fill="#0000ff"
             id="path6467"
             style="fill:#aacbe8;fill-opacity:1" />
          <path
             d="m 747.59668,441.05469 a 29.9296,29.9296 0 0 0 -3.07715,0.15869 29.53025,29.53025 0 0 0 -22.00976,13.59131 l -32.86719,51.64843 a 24.46649,24.46649 0 0 0 17.89941,37.459 l 0.64356,0.0703 a 24.41812,24.41812 0 0 0 20.7373,-8.09277 L 769.49121,490.25 a 29.33214,29.33214 0 0 0 -0.40137,-39.76074 q -0.29443,-0.31349 -0.58984,-0.61621 v 0 a 29.05359,29.05359 0 0 0 -20.90332,-8.81836 z"
             transform="translate(-224,-38.5)"
             fill="#2f2e41"
             id="path6469" />
          <path
             d="m 699.26855,386.32227 a 30.76482,30.76482 0 0 0 -26.00976,14.33789 l -48.46387,76.90429 a 30.34427,30.34427 0 0 0 -2.50586,27.77344 30.029,30.029 0 0 0 20.78516,18.14941 c 0.32422,0.0791 0.65234,0.15821 0.98535,0.23438 a 30.39737,30.39737 0 0 0 31.2793,-11.81348 C 689.44043,492.60254 715,456.82031 727.74414,434.082 a 30.16876,30.16876 0 0 0 -2.5,-33.6626 v 0 a 61.60952,61.60952 0 0 0 -4.832,-5.40673 29.9306,29.9306 0 0 0 -21.14359,-8.6904 z"
             transform="translate(-224,-38.5)"
             fill="#2f2e41"
             id="path6471" />
          <path
             d="m 638.71973,342.66309 a 32.90024,32.90024 0 0 0 -31.23438,23.4331 c -9.34765,31.17725 -29.00732,64.14111 -39.89453,81.01514 a 24.72768,24.72768 0 0 0 -3.2373,19.16113 23.35844,23.35844 0 0 0 11.12011,14.91309 q 0.58008,0.334 1.17188,0.64062 c 14.77929,7.68262 33.335,2.28418 42.24609,-12.292 l 47.23438,-77.2666 a 32.66094,32.66094 0 0 0 2.41211,-29.55469 31.51766,31.51766 0 0 0 -21.457,-18.93066 q -0.95361,-0.24611 -1.91015,-0.44727 a 31.2969,31.2969 0 0 0 -6.45121,-0.67186 z"
             transform="translate(-224,-38.5)"
             fill="#2f2e41"
             id="path6473" />
          <path
             d="m 532.07764,333.77246 c 4.3042,0.4209 9.165,0.71729 14.28955,1.0293 18.24365,1.11133 38.75049,2.36084 44.78906,10.10791 l 1.19336,-3.082 A 31.07907,31.07907 0 0 0 588.48828,313.89554 30.0034,30.0034 0 0 0 564.644,300.7207 v 0 c -0.62451,-0.022 -1.24707,-0.0283 -1.86621,-0.0225 -15.83691,0.16748 -29.16406,12.87158 -30.34082,28.92188 -0.0981,1.33888 -0.21627,2.70605 -0.35933,4.15234 z"
             transform="translate(-224,-38.5)"
             fill="#2f2e41"
             id="path6475" />
          <path
             d="m 569.17627,419.97656 a 1.85886,1.85886 0 0 0 -0.98779,0.29492 v 0 c -13.96582,8.644 -36.85938,10.49073 -49.2627,10.82178 a 2.74913,2.74913 0 0 0 -2.45019,1.64844 2.62062,2.62062 0 0 0 0.40234,2.82764 c 5.39746,6.29882 18.01855,13.73925 29.79687,15.28906 9.82666,1.27441 19.377,-17.1582 24.19483,-28.27246 a 1.80855,1.80855 0 0 0 -0.4834,-2.14649 1.87084,1.87084 0 0 0 -1.20996,-0.46289 z"
             transform="translate(-224,-38.5)"
             fill="#2f2e41"
             id="path6477" />
        </g>
      </g>
    </g>
  </g>
  <g
     inkscape:groupmode="layer"
     id="layer4"
     inkscape:label="verdad">
    <rect
       style="fill:#0000ff;fill-opacity:1;stroke:none;stroke-width:12.892"
       id="rect9071"
       width="542.72577"
       height="210.54916"
       x="267.6778"
       y="129.5215"
       ry="27.660847" />
    <rect
       style="fill:#0000ff;fill-opacity:1;stroke:none;stroke-width:12.892"
       id="rect9777"
       width="600.11627"
       height="228.82132"
       x="208.36945"
       y="385.03305"
       ry="27.660801" />
    <text
       xml:space="preserve"
       style="font-style:normal;font-variant:normal;font-weight:900;font-stretch:normal;font-size:96px;line-height:31.2;font-family:Arial;-inkscape-font-specification:'Arial Heavy';fill:#ffffff;fill-opacity:1;stroke:none"
       x="253.25888"
       y="535.17584"
       id="text11539-5"><tspan
         sodipodi:role="line"
         id="tspan11537-2"
         x="253.25888"
         y="535.17584">JUSTICIA</tspan></text>
    <rect
       style="fill:#0000ff;fill-opacity:1;stroke:none;stroke-width:15.6408"
       id="rect9779"
       width="768.9245"
       height="207.23441"
       x="41.259949"
       y="666.82721"
       ry="27.660801" />
    <text
       xml:space="preserve"
       style="font-style:normal;font-variant:normal;font-weight:900;font-stretch:normal;font-size:96px;line-height:31.2;font-family:Arial;-inkscape-font-specification:'Arial Heavy';fill:#ffffff;fill-opacity:1;stroke:none"
       x="73.824272"
       y="811.46497"
       id="text11539-5-8"><tspan
         sodipodi:role="line"
         id="tspan11537-2-9"
         x="73.824272"
         y="811.46497">REPARACIÓN</tspan></text>
    <text
       xml:space="preserve"
       style="font-style:normal;font-variant:normal;font-weight:900;font-stretch:normal;font-size:96px;line-height:31.2;font-family:Arial;-inkscape-font-specification:'Arial Heavy';fill:#ffffff;fill-opacity:1;stroke:none"
       x="319.48642"
       y="271.99515"
       id="text11539"><tspan
         sodipodi:role="line"
         id="tspan11537"
         x="319.48642"
         y="271.99515">VERDAD</tspan></text>
  </g>
</svg>
